<svg id="Layer_1" data-name="Layer 1" xmlns="http://www.w3.org/2000/svg" width="305" height="51.797514770069704" viewBox="0 0 305 51.797514770069704">
  <defs id="SvgjsDefs2320"></defs>
  <g id="SvgjsG2321" featurekey="2ou6gm-0" transform="matrix(0.7221179123838042,0,0,0.7221179123838042,-3.6062564798107912,-10.206415135583578)" fill="#ffffff">
    <path xmlns="http://www.w3.org/2000/svg" d="M79.063,28.195l-18.999-9.745l-15.973-0.767l-12.477-3.549L14.73,21.368l-1.455,3.092l-6.238,5.432l-2.043,2.475  l0.484,1.021l2.394,2.421l3.415,0.914l1.559-0.161l3.389-1.506l-2.824,1.956l5.66,0.667l11.455-0.848l2.847-4.399l-0.205,4.61  l4.307,1.868l1.938-0.896l-1.13,2.206l2.268,14.72l8.225,23.22l-9.066,0.333l-1.395,6.842l16.98-0.059l3.193-9.429l-0.355-16.849  L53.98,32.483L59.844,59l4.85-13.037l14.543,7.801L65.27,47.677l-4.61,13.773l-0.118,15.282l12.553,3.736l-13.262-1.343l-2.41,6.207  l32.146,0.532l5.438-27.311L79.063,28.195z M17.174,25.59l-1.585-0.35l-0.403-1.479l1.182-0.108l1.64,0.914L17.174,25.59z   M32.314,20.588l0.833-0.995l0.969,2.313l-0.901,2.582l-0.794,0.564l-0.107-2.555l-1.748-2.743l0.268-1.56l1.238-0.511l3.038,0.78  l-2.743-0.054l-0.672,0.915L32.314,20.588z"></path>
  </g>
  <g id="SvgjsG2322" featurekey="kZnDdN-0" transform="matrix(1.6814428347664785,0,0,1.6814428347664785,82.98226811721557,4.24762963409581)" fill="#ffffff">
    <path d="M2.86 18.44 l6.28 0 l0 1.56 l-7.94 0 l0 -14 l1.66 0 l0 12.44 z M12.799999999999999 18.44 l6.66 0 l0 1.56 l-7.06 0 l-1.26 0 l0 -14 l1.66 0 l6.48 0 l0 1.56 l-6.48 0 l0 4.64 l5.04 0 l0 1.52 l-5.04 0 l0 4.72 z M23.22 18.44 l6.66 0 l0 1.56 l-7.06 0 l-1.26 0 l0 -14 l1.66 0 l6.48 0 l0 1.56 l-6.48 0 l0 4.64 l5.04 0 l0 1.52 l-5.04 0 l0 4.72 z M52.56 6 l0 14 l-1.7 0 l0 -10.28 l-4.92 10.28 l-1.36 0 l-4.9 -10.26 l0 10.26 l-1.7 0 l0 -14 l1.64 0 l5.66 11.72 l5.64 -11.72 l1.64 0 z M66.52000000000001 18.5 c-1.28 1.1 -2.9 1.7 -4.7 1.7 c-3.64 0 -7.16 -2.96 -7.16 -7.2 s3.52 -7.2 7.16 -7.2 c1.78 0 3.38 0.6 4.64 1.66 l-1.02 1.16 c-0.98 -0.78 -2.24 -1.24 -3.5 -1.24 c-2.86 0 -5.56 2.32 -5.56 5.62 s2.7 5.62 5.56 5.62 c1.28 0 2.56 -0.48 3.54 -1.28 z M81.68 12.96 c0.3 4.48 -2.76 7.24 -6.4 7.24 c-3.74 0 -7.16 -2.96 -7.16 -7.2 s3.5 -7.2 7.16 -7.2 c1.76 0 3.36 0.6 4.62 1.66 l-1.02 1.16 c-0.98 -0.78 -2.24 -1.24 -3.5 -1.24 c-2.86 0 -5.54 2.32 -5.54 5.62 s2.6 5.62 5.44 5.62 c2.48 0 4.46 -1.34 4.84 -4.22 l-4.08 0 l0 -1.44 l5.64 0 z M94.08 20 l-1.8 0 l-3.54 -5.04 l-0.38 0 l-2.9 0 l0 5.04 l-1.66 0 l0 -14 l4.56 0 c3.14 0 4.96 1.92 4.96 4.52 c0 2 -1.08 3.56 -3 4.16 z M85.46 7.5600000000000005 l0 5.92 l2.86 0 c2.02 0 3.34 -1.04 3.34 -2.96 c0 -1.94 -1.32 -2.96 -3.34 -2.96 l-2.86 0 z M107.19999999999999 20 l-1.44 -3.3 l-7.48 0 l-1.44 3.3 l-1.76 0 l6.24 -14 l1.38 0 l6.26 14 l-1.76 0 z M98.89999999999999 15.3 l6.24 0 l-3.12 -7.12 z M119.59999999999998 6 l0 1.56 l-3.88 0 l0 12.44 l-1.66 0 l0 -12.44 l-3.9 0 l0 -1.56 l9.44 0 z M130.38 6 l1.66 0 l0 14 l-1.66 0 l0 -6.12 l-7.12 0 l0 6.12 l-1.66 0 l0 -14 l1.66 0 l0 6.32 l7.12 0 l0 -6.32 z"></path>
  </g>
</svg>